<?xml version="1.0" standalone="no"?><!DOCTYPE svg PUBLIC "-//W3C//DTD SVG 1.1//EN" "http://www.w3.org/Graphics/SVG/1.1/DTD/svg11.dtd"><svg t="1678431692568" class="icon" viewBox="0 0 1024 1024" version="1.1" xmlns="http://www.w3.org/2000/svg" p-id="3629" xmlns:xlink="http://www.w3.org/1999/xlink" width="200" height="200"><path d="M704 320v554.496H149.504V320h554.496m0.512-64H148.48c-34.816 0-63.488 28.16-63.488 63.488V875.52c0 34.816 28.16 63.488 63.488 63.488h556.032c34.816 0 63.488-28.16 63.488-63.488V319.488c0-35.328-28.16-63.488-63.488-63.488z m171.52-170.496H318.976c-34.816 0-62.464 28.16-62.976 62.464v65.024h64V149.504h554.496v554.496h-64V768H875.52c34.816 0 62.464-28.16 62.976-62.976V147.968c0-34.304-28.16-62.464-62.464-62.464z" p-id="3630" fill="#ffffff"></path></svg>